<svg width="539" height="170" viewBox="0 0 539 170" fill="none" xmlns="http://www.w3.org/2000/svg">
<path d="M12.8525 11.08C15.7859 11.08 18.3592 11.6533 20.5725 12.8C22.8125 13.9467 24.5325 15.5867 25.7325 17.72C26.9592 19.8267 27.5725 22.28 27.5725 25.08C27.5725 27.88 26.9592 30.3333 25.7325 32.44C24.5325 34.52 22.8125 36.1333 20.5725 37.28C18.3592 38.4267 15.7859 39 12.8525 39H3.09252V11.08H12.8525ZM12.6525 34.24C15.5859 34.24 17.8525 33.44 19.4525 31.84C21.0525 30.24 21.8525 27.9867 21.8525 25.08C21.8525 22.1733 21.0525 19.9067 19.4525 18.28C17.8525 16.6267 15.5859 15.8 12.6525 15.8H8.69252V34.24H12.6525ZM30.9911 27.84C30.9911 25.6 31.4311 23.6133 32.3111 21.88C33.2177 20.1467 34.4311 18.8133 35.9511 17.88C37.4977 16.9467 39.2177 16.48 41.1111 16.48C42.7644 16.48 44.2044 16.8133 45.4311 17.48C46.6844 18.1467 47.6844 18.9867 48.4311 20V16.84H54.0711V39H48.4311V35.76C47.7111 36.8 46.7111 37.6667 45.4311 38.36C44.1777 39.0267 42.7244 39.36 41.0711 39.36C39.2044 39.36 37.4977 38.88 35.9511 37.92C34.4311 36.96 33.2177 35.6133 32.3111 33.88C31.4311 32.12 30.9911 30.1067 30.9911 27.84ZM48.4311 27.92C48.4311 26.56 48.1644 25.4 47.6311 24.44C47.0977 23.4533 46.3777 22.7067 45.4711 22.2C44.5644 21.6667 43.5911 21.4 42.5511 21.4C41.5111 21.4 40.5511 21.6533 39.6711 22.16C38.7911 22.6667 38.0711 23.4133 37.5111 24.4C36.9777 25.36 36.7111 26.5067 36.7111 27.84C36.7111 29.1733 36.9777 30.3467 37.5111 31.36C38.0711 32.3467 38.7911 33.1067 39.6711 33.64C40.5777 34.1733 41.5377 34.44 42.5511 34.44C43.5911 34.44 44.5644 34.1867 45.4711 33.68C46.3777 33.1467 47.0977 32.4 47.6311 31.44C48.1644 30.4533 48.4311 29.28 48.4311 27.92ZM68.6871 39.36C66.8738 39.36 65.2471 39.04 63.8071 38.4C62.3671 37.7333 61.2204 36.84 60.3671 35.72C59.5404 34.6 59.0871 33.36 59.0071 32H64.6471C64.7538 32.8533 65.1671 33.56 65.8871 34.12C66.6338 34.68 67.5538 34.96 68.6471 34.96C69.7138 34.96 70.5404 34.7467 71.1271 34.32C71.7404 33.8933 72.0471 33.3467 72.0471 32.68C72.0471 31.96 71.6738 31.4267 70.9271 31.08C70.2071 30.7067 69.0471 30.3067 67.4471 29.88C65.7938 29.48 64.4338 29.0667 63.3671 28.64C62.3271 28.2133 61.4204 27.56 60.6471 26.68C59.9004 25.8 59.5271 24.6133 59.5271 23.12C59.5271 21.8933 59.8738 20.7733 60.5671 19.76C61.2871 18.7467 62.3004 17.9467 63.6071 17.36C64.9404 16.7733 66.5004 16.48 68.2871 16.48C70.9271 16.48 73.0338 17.1467 74.6071 18.48C76.1804 19.7867 77.0471 21.56 77.2071 23.8H71.8471C71.7671 22.92 71.3938 22.2267 70.7271 21.72C70.0871 21.1867 69.2204 20.92 68.1271 20.92C67.1138 20.92 66.3271 21.1067 65.7671 21.48C65.2338 21.8533 64.9671 22.3733 64.9671 23.04C64.9671 23.7867 65.3404 24.36 66.0871 24.76C66.8338 25.1333 67.9938 25.52 69.5671 25.92C71.1671 26.32 72.4871 26.7333 73.5271 27.16C74.5671 27.5867 75.4604 28.2533 76.2071 29.16C76.9804 30.04 77.3804 31.2133 77.4071 32.68C77.4071 33.96 77.0471 35.1067 76.3271 36.12C75.6338 37.1333 74.6204 37.9333 73.2871 38.52C71.9804 39.08 70.4471 39.36 68.6871 39.36ZM95.1506 16.52C96.8306 16.52 98.324 16.8933 99.6306 17.64C100.937 18.36 101.951 19.44 102.671 20.88C103.417 22.2933 103.791 24 103.791 26V39H98.1906V26.76C98.1906 25 97.7506 23.6533 96.8706 22.72C95.9906 21.76 94.7906 21.28 93.2706 21.28C91.724 21.28 90.4973 21.76 89.5906 22.72C88.7106 23.6533 88.2706 25 88.2706 26.76V39H82.6706V9.4H88.2706V19.6C88.9906 18.64 89.9506 17.8933 91.1506 17.36C92.3506 16.8 93.684 16.52 95.1506 16.52ZM115.383 20.08C116.103 19.0133 117.089 18.1467 118.343 17.48C119.623 16.8133 121.076 16.48 122.703 16.48C124.596 16.48 126.303 16.9467 127.823 17.88C129.369 18.8133 130.583 20.1467 131.463 21.88C132.369 23.5867 132.823 25.5733 132.823 27.84C132.823 30.1067 132.369 32.12 131.463 33.88C130.583 35.6133 129.369 36.96 127.823 37.92C126.303 38.88 124.596 39.36 122.703 39.36C121.049 39.36 119.596 39.04 118.343 38.4C117.116 37.7333 116.129 36.88 115.383 35.84V39H109.783V9.4H115.383V20.08ZM127.103 27.84C127.103 26.5067 126.823 25.36 126.263 24.4C125.729 23.4133 125.009 22.6667 124.103 22.16C123.223 21.6533 122.263 21.4 121.223 21.4C120.209 21.4 119.249 21.6667 118.343 22.2C117.463 22.7067 116.743 23.4533 116.183 24.44C115.649 25.4267 115.383 26.5867 115.383 27.92C115.383 29.2533 115.649 30.4133 116.183 31.4C116.743 32.3867 117.463 33.1467 118.343 33.68C119.249 34.1867 120.209 34.44 121.223 34.44C122.263 34.44 123.223 34.1733 124.103 33.64C125.009 33.1067 125.729 32.3467 126.263 31.36C126.823 30.3733 127.103 29.2 127.103 27.84ZM147.399 39.36C145.265 39.36 143.345 38.8933 141.639 37.96C139.932 37 138.585 35.6533 137.599 33.92C136.639 32.1867 136.159 30.1867 136.159 27.92C136.159 25.6533 136.652 23.6533 137.639 21.92C138.652 20.1867 140.025 18.8533 141.759 17.92C143.492 16.96 145.425 16.48 147.559 16.48C149.692 16.48 151.625 16.96 153.359 17.92C155.092 18.8533 156.452 20.1867 157.439 21.92C158.452 23.6533 158.959 25.6533 158.959 27.92C158.959 30.1867 158.439 32.1867 157.399 33.92C156.385 35.6533 154.999 37 153.239 37.96C151.505 38.8933 149.559 39.36 147.399 39.36ZM147.399 34.48C148.412 34.48 149.359 34.24 150.239 33.76C151.145 33.2533 151.865 32.5067 152.399 31.52C152.932 30.5333 153.199 29.3333 153.199 27.92C153.199 25.8133 152.639 24.2 151.519 23.08C150.425 21.9333 149.079 21.36 147.479 21.36C145.879 21.36 144.532 21.9333 143.439 23.08C142.372 24.2 141.839 25.8133 141.839 27.92C141.839 30.0267 142.359 31.6533 143.399 32.8C144.465 33.92 145.799 34.48 147.399 34.48ZM162.293 27.84C162.293 25.6 162.733 23.6133 163.613 21.88C164.52 20.1467 165.733 18.8133 167.253 17.88C168.8 16.9467 170.52 16.48 172.413 16.48C174.066 16.48 175.506 16.8133 176.733 17.48C177.986 18.1467 178.986 18.9867 179.733 20V16.84H185.373V39H179.733V35.76C179.013 36.8 178.013 37.6667 176.733 38.36C175.48 39.0267 174.026 39.36 172.373 39.36C170.506 39.36 168.8 38.88 167.253 37.92C165.733 36.96 164.52 35.6133 163.613 33.88C162.733 32.12 162.293 30.1067 162.293 27.84ZM179.733 27.92C179.733 26.56 179.466 25.4 178.933 24.44C178.4 23.4533 177.68 22.7067 176.773 22.2C175.866 21.6667 174.893 21.4 173.853 21.4C172.813 21.4 171.853 21.6533 170.973 22.16C170.093 22.6667 169.373 23.4133 168.813 24.4C168.28 25.36 168.013 26.5067 168.013 27.84C168.013 29.1733 168.28 30.3467 168.813 31.36C169.373 32.3467 170.093 33.1067 170.973 33.64C171.88 34.1733 172.84 34.44 173.853 34.44C174.893 34.44 175.866 34.1867 176.773 33.68C177.68 33.1467 178.4 32.4 178.933 31.44C179.466 30.4533 179.733 29.28 179.733 27.92ZM197.109 20.28C197.829 19.1067 198.763 18.1867 199.909 17.52C201.083 16.8533 202.416 16.52 203.909 16.52V22.4H202.429C200.669 22.4 199.336 22.8133 198.429 23.64C197.549 24.4667 197.109 25.9067 197.109 27.96V39H191.509V16.84H197.109V20.28ZM206.908 27.84C206.908 25.6 207.348 23.6133 208.228 21.88C209.134 20.1467 210.361 18.8133 211.908 17.88C213.454 16.9467 215.174 16.48 217.068 16.48C218.508 16.48 219.881 16.8 221.188 17.44C222.494 18.0533 223.534 18.88 224.308 19.92V9.4H229.988V39H224.308V35.72C223.614 36.8133 222.641 37.6933 221.388 38.36C220.134 39.0267 218.681 39.36 217.028 39.36C215.161 39.36 213.454 38.88 211.908 37.92C210.361 36.96 209.134 35.6133 208.228 33.88C207.348 32.12 206.908 30.1067 206.908 27.84ZM224.348 27.92C224.348 26.56 224.081 25.4 223.548 24.44C223.014 23.4533 222.294 22.7067 221.388 22.2C220.481 21.6667 219.508 21.4 218.468 21.4C217.428 21.4 216.468 21.6533 215.588 22.16C214.708 22.6667 213.988 23.4133 213.428 24.4C212.894 25.36 212.628 26.5067 212.628 27.84C212.628 29.1733 212.894 30.3467 213.428 31.36C213.988 32.3467 214.708 33.1067 215.588 33.64C216.494 34.1733 217.454 34.44 218.468 34.44C219.508 34.44 220.481 34.1867 221.388 33.68C222.294 33.1467 223.014 32.4 223.548 31.44C224.081 30.4533 224.348 29.28 224.348 27.92Z" fill="#262A41"/>
<path opacity="0.5" d="M1.32452 72.096C1.32452 70.2613 1.62319 68.832 2.22052 67.808C2.81785 66.7733 3.86319 66.256 5.35652 66.256C6.83919 66.256 7.87919 66.7733 8.47652 67.808C9.07385 68.832 9.37252 70.2613 9.37252 72.096C9.37252 73.9627 9.07385 75.4133 8.47652 76.448C7.87919 77.4827 6.83919 78 5.35652 78C3.86319 78 2.81785 77.4827 2.22052 76.448C1.62319 75.4133 1.32452 73.9627 1.32452 72.096ZM7.93252 72.096C7.93252 71.168 7.86852 70.384 7.74052 69.744C7.62319 69.0933 7.37252 68.5707 6.98852 68.176C6.61519 67.7813 6.07119 67.584 5.35652 67.584C4.63119 67.584 4.07652 67.7813 3.69252 68.176C3.31919 68.5707 3.06852 69.0933 2.94052 69.744C2.82319 70.384 2.76452 71.168 2.76452 72.096C2.76452 73.056 2.82319 73.8613 2.94052 74.512C3.06852 75.1627 3.31919 75.6853 3.69252 76.08C4.07652 76.4747 4.63119 76.672 5.35652 76.672C6.07119 76.672 6.61519 76.4747 6.98852 76.08C7.37252 75.6853 7.62319 75.1627 7.74052 74.512C7.86852 73.8613 7.93252 73.056 7.93252 72.096ZM11.3303 67.76V66.432H14.3383V78H12.8663V67.76H11.3303ZM28.1106 71.52V72.752H21.7266V71.52H28.1106ZM35.3784 76.832C36.7331 75.744 37.7944 74.8533 38.5624 74.16C39.3304 73.456 39.9758 72.7253 40.4984 71.968C41.0318 71.2 41.2984 70.448 41.2984 69.712C41.2984 69.0187 41.1278 68.4747 40.7864 68.08C40.4558 67.6747 39.9171 67.472 39.1704 67.472C38.4451 67.472 37.8798 67.7013 37.4744 68.16C37.0798 68.608 36.8664 69.2107 36.8344 69.968H35.4264C35.4691 68.7733 35.8318 67.8507 36.5144 67.2C37.1971 66.5493 38.0771 66.224 39.1544 66.224C40.2531 66.224 41.1224 66.528 41.7624 67.136C42.4131 67.744 42.7384 68.5813 42.7384 69.648C42.7384 70.5333 42.4718 71.3973 41.9384 72.24C41.4158 73.072 40.8184 73.808 40.1464 74.448C39.4744 75.0773 38.6158 75.8133 37.5704 76.656H43.0744V77.872H35.3784V76.832ZM52.4764 67.696H46.8604V71.344C47.1057 71.0027 47.4684 70.7253 47.9484 70.512C48.4284 70.288 48.9457 70.176 49.5004 70.176C50.3857 70.176 51.1057 70.3627 51.6604 70.736C52.2151 71.0987 52.6097 71.5733 52.8444 72.16C53.0897 72.736 53.2124 73.3493 53.2124 74C53.2124 74.768 53.0684 75.456 52.7804 76.064C52.4924 76.672 52.0497 77.152 51.4524 77.504C50.8657 77.856 50.1351 78.032 49.2604 78.032C48.1404 78.032 47.2337 77.744 46.5404 77.168C45.8471 76.592 45.4257 75.824 45.2764 74.864H46.7004C46.8391 75.472 47.1324 75.9467 47.5804 76.288C48.0284 76.6293 48.5937 76.8 49.2764 76.8C50.1191 76.8 50.7537 76.5493 51.1804 76.048C51.6071 75.536 51.8204 74.864 51.8204 74.032C51.8204 73.2 51.6071 72.56 51.1804 72.112C50.7537 71.6533 50.1244 71.424 49.2924 71.424C48.7271 71.424 48.2311 71.5627 47.8044 71.84C47.3884 72.1067 47.0844 72.4747 46.8924 72.944H45.5164V66.416H52.4764V67.696ZM71.6506 66.928V78H70.1946V69.744L66.5146 78H65.4906L61.7946 69.728V78H60.3386V66.928H61.9066L66.0026 76.08L70.0986 66.928H71.6506ZM73.9187 73.584C73.9187 72.688 74.1001 71.904 74.4627 71.232C74.8254 70.5493 75.3214 70.0213 75.9507 69.648C76.5907 69.2747 77.3001 69.088 78.0787 69.088C78.8467 69.088 79.5134 69.2533 80.0787 69.584C80.6441 69.9147 81.0654 70.3307 81.3427 70.832V69.232H82.8147V78H81.3427V76.368C81.0547 76.88 80.6227 77.3067 80.0467 77.648C79.4814 77.9787 78.8201 78.144 78.0627 78.144C77.2841 78.144 76.5801 77.952 75.9507 77.568C75.3214 77.184 74.8254 76.6453 74.4627 75.952C74.1001 75.2587 73.9187 74.4693 73.9187 73.584ZM81.3427 73.6C81.3427 72.9387 81.2094 72.3627 80.9427 71.872C80.6761 71.3813 80.3134 71.008 79.8547 70.752C79.4067 70.4853 78.9107 70.352 78.3667 70.352C77.8227 70.352 77.3267 70.48 76.8787 70.736C76.4307 70.992 76.0734 71.3653 75.8067 71.856C75.5401 72.3467 75.4067 72.9227 75.4067 73.584C75.4067 74.256 75.5401 74.8427 75.8067 75.344C76.0734 75.8347 76.4307 76.2133 76.8787 76.48C77.3267 76.736 77.8227 76.864 78.3667 76.864C78.9107 76.864 79.4067 76.736 79.8547 76.48C80.3134 76.2133 80.6761 75.8347 80.9427 75.344C81.2094 74.8427 81.3427 74.2613 81.3427 73.6ZM87.0741 70.656C87.3301 70.1547 87.6928 69.7653 88.1621 69.488C88.6421 69.2107 89.2234 69.072 89.9061 69.072V70.576H89.5221C87.8901 70.576 87.0741 71.4613 87.0741 73.232V78H85.6181V69.232H87.0741V70.656ZM91.3857 73.6C91.3857 72.6933 91.567 71.904 91.9297 71.232C92.2924 70.5493 92.7937 70.0213 93.4337 69.648C94.0844 69.2747 94.8257 69.088 95.6577 69.088C96.735 69.088 97.6204 69.3493 98.3137 69.872C99.0177 70.3947 99.4817 71.12 99.7057 72.048H98.1377C97.9884 71.5147 97.695 71.0933 97.2577 70.784C96.831 70.4747 96.2977 70.32 95.6577 70.32C94.8257 70.32 94.1537 70.608 93.6417 71.184C93.1297 71.7493 92.8737 72.5547 92.8737 73.6C92.8737 74.656 93.1297 75.472 93.6417 76.048C94.1537 76.624 94.8257 76.912 95.6577 76.912C96.2977 76.912 96.831 76.7627 97.2577 76.464C97.6844 76.1653 97.9777 75.7387 98.1377 75.184H99.7057C99.471 76.08 99.0017 76.8 98.2977 77.344C97.5937 77.8773 96.7137 78.144 95.6577 78.144C94.8257 78.144 94.0844 77.9573 93.4337 77.584C92.7937 77.2107 92.2924 76.6827 91.9297 76C91.567 75.3173 91.3857 74.5173 91.3857 73.6ZM106.343 69.072C107.005 69.072 107.602 69.216 108.135 69.504C108.669 69.7813 109.085 70.2027 109.383 70.768C109.693 71.3333 109.847 72.0213 109.847 72.832V78H108.407V73.04C108.407 72.1653 108.189 71.4987 107.751 71.04C107.314 70.5707 106.717 70.336 105.959 70.336C105.191 70.336 104.578 70.576 104.119 71.056C103.671 71.536 103.447 72.2347 103.447 73.152V78H101.991V66.16H103.447V70.48C103.735 70.032 104.13 69.6853 104.631 69.44C105.143 69.1947 105.714 69.072 106.343 69.072ZM114.073 75.984L112.281 80.288H111.305L112.473 75.984H114.073ZM120.276 76.832C121.63 75.744 122.692 74.8533 123.46 74.16C124.228 73.456 124.873 72.7253 125.396 71.968C125.929 71.2 126.196 70.448 126.196 69.712C126.196 69.0187 126.025 68.4747 125.684 68.08C125.353 67.6747 124.814 67.472 124.068 67.472C123.342 67.472 122.777 67.7013 122.372 68.16C121.977 68.608 121.764 69.2107 121.732 69.968H120.324C120.366 68.7733 120.729 67.8507 121.412 67.2C122.094 66.5493 122.974 66.224 124.052 66.224C125.15 66.224 126.02 66.528 126.66 67.136C127.31 67.744 127.636 68.5813 127.636 69.648C127.636 70.5333 127.369 71.3973 126.836 72.24C126.313 73.072 125.716 73.808 125.044 74.448C124.372 75.0773 123.513 75.8133 122.468 76.656H127.972V77.872H120.276V76.832ZM129.998 72.096C129.998 70.2613 130.296 68.832 130.894 67.808C131.491 66.7733 132.536 66.256 134.03 66.256C135.512 66.256 136.552 66.7733 137.15 67.808C137.747 68.832 138.046 70.2613 138.046 72.096C138.046 73.9627 137.747 75.4133 137.15 76.448C136.552 77.4827 135.512 78 134.03 78C132.536 78 131.491 77.4827 130.894 76.448C130.296 75.4133 129.998 73.9627 129.998 72.096ZM136.606 72.096C136.606 71.168 136.542 70.384 136.414 69.744C136.296 69.0933 136.046 68.5707 135.662 68.176C135.288 67.7813 134.744 67.584 134.03 67.584C133.304 67.584 132.75 67.7813 132.366 68.176C131.992 68.5707 131.742 69.0933 131.614 69.744C131.496 70.384 131.438 71.168 131.438 72.096C131.438 73.056 131.496 73.8613 131.614 74.512C131.742 75.1627 131.992 75.6853 132.366 76.08C132.75 76.4747 133.304 76.672 134.03 76.672C134.744 76.672 135.288 76.4747 135.662 76.08C136.046 75.6853 136.296 75.1627 136.414 74.512C136.542 73.8613 136.606 73.056 136.606 72.096ZM140.211 76.832C141.566 75.744 142.627 74.8533 143.395 74.16C144.163 73.456 144.809 72.7253 145.331 71.968C145.865 71.2 146.131 70.448 146.131 69.712C146.131 69.0187 145.961 68.4747 145.619 68.08C145.289 67.6747 144.75 67.472 144.003 67.472C143.278 67.472 142.713 67.7013 142.307 68.16C141.913 68.608 141.699 69.2107 141.667 69.968H140.259C140.302 68.7733 140.665 67.8507 141.347 67.2C142.03 66.5493 142.91 66.224 143.987 66.224C145.086 66.224 145.955 66.528 146.595 67.136C147.246 67.744 147.571 68.5813 147.571 69.648C147.571 70.5333 147.305 71.3973 146.771 72.24C146.249 73.072 145.651 73.808 144.979 74.448C144.307 75.0773 143.449 75.8133 142.403 76.656H147.907V77.872H140.211V76.832ZM149.933 72.096C149.933 70.2613 150.232 68.832 150.829 67.808C151.427 66.7733 152.472 66.256 153.965 66.256C155.448 66.256 156.488 66.7733 157.085 67.808C157.683 68.832 157.981 70.2613 157.981 72.096C157.981 73.9627 157.683 75.4133 157.085 76.448C156.488 77.4827 155.448 78 153.965 78C152.472 78 151.427 77.4827 150.829 76.448C150.232 75.4133 149.933 73.9627 149.933 72.096ZM156.541 72.096C156.541 71.168 156.477 70.384 156.349 69.744C156.232 69.0933 155.981 68.5707 155.597 68.176C155.224 67.7813 154.68 67.584 153.965 67.584C153.24 67.584 152.685 67.7813 152.301 68.176C151.928 68.5707 151.677 69.0933 151.549 69.744C151.432 70.384 151.373 71.168 151.373 72.096C151.373 73.056 151.432 73.8613 151.549 74.512C151.677 75.1627 151.928 75.6853 152.301 76.08C152.685 76.4747 153.24 76.672 153.965 76.672C154.68 76.672 155.224 76.4747 155.597 76.08C155.981 75.6853 156.232 75.1627 156.349 74.512C156.477 73.8613 156.541 73.056 156.541 72.096Z" fill="#101010"/>
<path opacity="0.2" fill-rule="evenodd" clip-rule="evenodd" d="M0.33252 135H17.2194V170H0.33252V135Z" fill="#157AFF"/>
<path opacity="0.2" fill-rule="evenodd" clip-rule="evenodd" d="M23.552 118H40.4389V170H23.552V118Z" fill="#157AFF"/>
<path opacity="0.2" fill-rule="evenodd" clip-rule="evenodd" d="M47.8269 126H64.7138V170H47.8269V126Z" fill="#157AFF"/>
<path opacity="0.2" fill-rule="evenodd" clip-rule="evenodd" d="M95.321 135H112.208V170H95.321V135Z" fill="#157AFF"/>
<path opacity="0.2" fill-rule="evenodd" clip-rule="evenodd" d="M118.541 140H135.427V170H118.541V140Z" fill="#157AFF"/>
<path opacity="0.2" fill-rule="evenodd" clip-rule="evenodd" d="M142.815 126H159.702V170H142.815V126Z" fill="#157AFF"/>
<path opacity="0.2" fill-rule="evenodd" clip-rule="evenodd" d="M166.035 143H182.922V170H166.035V143Z" fill="#157AFF"/>
<path opacity="0.2" fill-rule="evenodd" clip-rule="evenodd" d="M71.0464 143H87.9332V170H71.0464V143Z" fill="#157AFF"/>
<path opacity="0.2" fill-rule="evenodd" clip-rule="evenodd" d="M190.31 135H207.197V170H190.31V135Z" fill="#157AFF"/>
<path opacity="0.2" fill-rule="evenodd" clip-rule="evenodd" d="M213.529 118H230.416V170H213.529V118Z" fill="#157AFF"/>
<path opacity="0.2" fill-rule="evenodd" clip-rule="evenodd" d="M237.804 126H254.691V170H237.804V126Z" fill="#157AFF"/>
<path opacity="0.2" fill-rule="evenodd" clip-rule="evenodd" d="M284.243 135H301.13V170H284.243V135Z" fill="#157AFF"/>
<path opacity="0.2" fill-rule="evenodd" clip-rule="evenodd" d="M308.518 140H325.405V170H308.518V140Z" fill="#157AFF"/>
<path opacity="0.2" fill-rule="evenodd" clip-rule="evenodd" d="M331.737 126H348.624V170H331.737V126Z" fill="#157AFF"/>
<path opacity="0.2" fill-rule="evenodd" clip-rule="evenodd" d="M356.012 143H372.899V170H356.012V143Z" fill="#157AFF"/>
<path opacity="0.2" fill-rule="evenodd" clip-rule="evenodd" d="M261.023 143H277.91V170H261.023V143Z" fill="#157AFF"/>
<path opacity="0.2" fill-rule="evenodd" clip-rule="evenodd" d="M379.231 135H396.118V170H379.231V135Z" fill="#157AFF"/>
<path opacity="0.2" fill-rule="evenodd" clip-rule="evenodd" d="M403.506 118H420.393V170H403.506V118Z" fill="#157AFF"/>
<path opacity="0.2" fill-rule="evenodd" clip-rule="evenodd" d="M426.726 126H443.612V170H426.726V126Z" fill="#157AFF"/>
<path opacity="0.2" fill-rule="evenodd" clip-rule="evenodd" d="M474.22 135H491.107V170H474.22V135Z" fill="#157AFF"/>
<path fill-rule="evenodd" clip-rule="evenodd" d="M498.495 110H515.382V170H498.495V110Z" fill="#157AFF"/>
<path opacity="0.2" fill-rule="evenodd" clip-rule="evenodd" d="M521.714 126H538.601V170H521.714V126Z" fill="#157AFF"/>
<path opacity="0.2" fill-rule="evenodd" clip-rule="evenodd" d="M451 143H467.887V170H451V143Z" fill="#157AFF"/>
</svg>
